<svg width="19" height="19" viewBox="0 0 19 19" fill="none" xmlns="http://www.w3.org/2000/svg">
<path d="M19 9.5C19 14.7467 14.7467 19 9.5 19C4.25329 19 0 14.7467 0 9.5C0 4.25329 4.25329 0 9.5 0C14.7467 0 19 4.25329 19 9.5Z" fill="white"/>
<path d="M19 9.55781C19 4.27789 14.748 0 9.5 0C4.25202 0 0 4.27789 0 9.55781C0 14.3282 3.47401 18.2824 8.01562 19V12.3207H5.60232V9.55781H8.01562V7.45201C8.01562 5.05678 9.43296 3.73371 11.6038 3.73371C12.6434 3.73371 13.7306 3.92024 13.7306 3.92024V6.27116H12.5323C11.3525 6.27116 10.9844 7.00803 10.9844 7.76379V9.55781H13.6191L13.1977 12.3207H10.9844V19C15.526 18.2824 19 14.3282 19 9.55781Z" fill="#0865FE"/>
</svg>
