<svg width="28" height="21" viewBox="0 0 28 21" fill="none" xmlns="http://www.w3.org/2000/svg">
<path d="M26.2378 20.5207H1.75701C0.800627 20.5207 0 19.7638 0 18.7864V1.84901C0.000926223 1.38346 0.186392 0.937281 0.515744 0.608257C0.845096 0.279233 1.29146 0.0942123 1.75701 0.09375H26.2378C27.1942 0.09375 27.9948 0.881252 27.9948 1.85076V18.7646C27.973 19.7656 27.1942 20.5207 26.2378 20.5207Z" fill="#F2F2F2"/>
<path opacity="0.1" d="M3.5002 20.5213L13.974 12.8563L14.0405 12.4118L3.2377 4.65137L3.21582 20.1433L3.5002 20.5213Z" fill="#221F1F"/>
<path d="M1.75722 20.5213C1.73581 20.5213 1.71449 20.5209 1.69326 20.5202C1.48333 20.5155 1.27582 20.4726 1.08092 20.3935C0.86626 20.3063 0.671254 20.177 0.507439 20.0132L0.494298 19.9999C0.225636 19.7278 0.0476719 19.3665 0.00841512 18.9587C0.00201097 18.894 -0.000754574 18.8288 0.00017575 18.7635V1.82692C0.00017575 1.81452 0.000314615 1.80225 0.000590928 1.79011C0.0201792 0.844179 0.799988 0.671875 1.75722 0.671875C2.72672 0.671875 3.51422 0.873125 3.51422 1.82688V20.5204L1.75722 20.5213Z" fill="#D44C3D"/>
<path d="M24.481 1.78315C24.481 0.933488 25.075 0.73797 25.8664 0.701249C25.986 0.695183 26.1103 0.692917 26.238 0.692917C26.9938 0.692917 27.6387 0.762318 27.8867 1.26345C27.9518 1.39194 27.9895 1.54862 27.9944 1.73942C27.9946 1.74638 27.9949 1.75338 27.995 1.76042V18.7854C27.995 18.7896 27.995 18.7939 27.995 18.7981V18.809C27.9949 18.8132 27.9948 18.8175 27.9946 18.8217C27.9755 19.7745 27.204 20.5424 26.238 20.5424H24.481L24.481 1.78315Z" fill="#D44C3D"/>
<path opacity="0.08" d="M18.7446 20.5207L0.156006 2.57004L1.13426 2.96992L14.0843 12.2861L27.9942 2.07129V18.8083C27.9933 19.0377 27.9471 19.2647 27.8582 19.4762C27.7693 19.6877 27.6394 19.8795 27.4762 20.0407C27.3129 20.2018 27.1194 20.3291 26.9068 20.4153C26.6942 20.5014 26.4666 20.5447 26.2372 20.5426L18.7446 20.5207Z" fill="#221F1F"/>
<path d="M13.9649 12.8779L0.755845 3.29484C-0.0316578 2.71734 -0.245159 1.60609 0.333218 0.827335C0.911595 0.0485826 2.02197 -0.129043 2.82348 0.449334L13.9859 8.56498L25.2148 0.339083C26.0023 -0.238418 27.0829 -0.0607931 27.6604 0.738959C28.2379 1.52646 28.0603 2.60709 27.2606 3.18459L13.9649 12.8779Z" fill="#D44C3D"/>
<path d="M26.2377 0.270833C26.7049 0.270833 27.1713 0.493084 27.4609 0.893835C27.9282 1.56059 27.7934 2.49509 27.1284 2.99384L13.9649 12.5672L0.911595 3.09534C0.244843 2.60534 0.0663425 1.64896 0.524844 0.995336C0.79172 0.595459 1.25985 0.350459 1.76997 0.350459C2.10247 0.350459 2.41485 0.439709 2.65898 0.639209L13.7978 8.73299L13.9535 8.82224L14.1093 8.73299L25.3268 0.514084C25.6155 0.358333 25.9043 0.269083 26.2385 0.269083L26.2377 0.270833ZM26.2377 0.00395746C25.8815 0.00395746 25.5027 0.0932074 25.2139 0.336458L13.9859 8.56411L2.8016 0.426584C2.51285 0.204333 2.13485 0.0940825 1.75685 0.0940825C1.20122 0.115958 0.645594 0.360958 0.311343 0.829085C-0.244284 1.61659 -0.0211578 2.69722 0.755845 3.27472L13.9649 12.8779L27.2606 3.18284C27.6346 2.90905 27.8861 2.49929 27.9609 2.04184C28.0357 1.58439 27.9278 1.11587 27.6604 0.73721C27.3043 0.269958 26.7714 0.00220716 26.2377 0.00220716V0.00395746Z" fill="#D44C3D"/>
</svg>
