<svg width="19" height="19" viewBox="0 0 19 19" fill="none" xmlns="http://www.w3.org/2000/svg">
<path d="M9.50801 4.65079C9.34093 4.65079 9.17567 4.65933 9.01285 4.67604C8.85003 4.69274 8.68947 4.7175 8.53164 4.75C8.37381 4.78251 8.21878 4.82275 8.06686 4.87025L7.62094 5.03429L7.19639 5.23967L6.79577 5.48389L6.42143 5.76439L6.07601 6.07874L5.76194 6.42449L5.48164 6.79909L5.23757 7.20008L5.03244 7.62493C4.97078 7.77024 4.91594 7.91921 4.86847 8.07129C4.82099 8.22338 4.78082 8.37863 4.74831 8.53656C4.71581 8.6945 4.6911 8.85518 4.67436 9.01818C4.65762 9.18117 4.64922 9.34655 4.64922 9.51375C4.64922 9.68096 4.65774 9.84633 4.67436 10.0093C4.69088 10.171 4.71557 10.3318 4.74831 10.491C4.78082 10.6496 4.82099 10.8042 4.86847 10.9563C4.91594 11.1084 4.97072 11.2573 5.03244 11.4026L5.23757 11.8275L5.48164 12.2284L5.76194 12.6031L6.07601 12.9488L6.42143 13.2632L6.79577 13.5437L7.19639 13.7879L7.62094 13.9933L8.06686 14.1573L8.53164 14.2776C8.6907 14.3103 8.85131 14.3351 9.01285 14.3516C9.17737 14.3684 9.34264 14.3768 9.50801 14.3768C9.67509 14.3768 9.84034 14.3682 10.0031 14.3516C10.1646 14.3351 10.3253 14.3103 10.4843 14.2776L10.9492 14.1573L11.3951 13.9933L11.8196 13.7879L12.2203 13.5437L12.5946 13.2632L12.9401 12.9488L13.2541 12.6031L13.5344 12.2284L13.7785 11.8275L13.9836 11.4026L14.1476 10.9563C14.1951 10.8042 14.2353 10.6489 14.2678 10.491L14.3417 10.0093C14.3584 9.84627 14.3669 9.6809 14.3669 9.51369C14.3669 9.34649 14.3584 9.18111 14.3417 9.01812C14.3252 8.85643 14.3005 8.69569 14.2678 8.5365C14.2353 8.37796 14.1951 8.22338 14.1476 8.07123L13.9836 7.62486L13.7785 7.20002L13.5344 6.79902L13.2541 6.42443L12.9401 6.07868L12.5946 5.76433L12.2203 5.48383L11.8196 5.2396L11.3951 5.03423L10.9492 4.87019L10.4843 4.74994L10.0031 4.67597C9.83861 4.65914 9.67336 4.65078 9.50801 4.65079ZM9.50801 6.3293C9.61848 6.3293 9.7275 6.33479 9.83487 6.34564L10.1514 6.39363L10.4571 6.47169L10.7499 6.57822L11.0282 6.71176L11.29 6.87061L11.5346 7.05337L11.7602 7.25838L11.965 7.48412L12.1476 7.72902L12.3064 7.99159L12.4397 8.27027C12.4797 8.36564 12.5153 8.46339 12.5462 8.56333C12.5771 8.66328 12.6031 8.76542 12.6241 8.86945C12.6451 8.97348 12.6606 9.07934 12.672 9.18685L12.6883 9.51406C12.6883 9.62461 12.6828 9.73377 12.672 9.84133C12.6612 9.9489 12.6452 10.0548 12.6241 10.1587C12.603 10.2627 12.5769 10.3648 12.5462 10.4648L12.4397 10.7579L12.3064 11.0366L12.1476 11.2991L11.965 11.5441L11.7602 11.7698L11.5346 11.9748L11.29 12.1576L11.0282 12.3164L10.7499 12.45L10.4571 12.5565L10.1514 12.6345L9.83487 12.6825C9.72623 12.6934 9.61712 12.6988 9.50795 12.6988C9.39875 12.6988 9.28962 12.6934 9.18097 12.6825L8.86446 12.6345C8.76056 12.6134 8.65855 12.5873 8.55866 12.5565L8.26589 12.45L7.98755 12.3164L7.72582 12.1576L7.48113 11.9748L7.25556 11.7698L7.05074 11.5441L6.86814 11.2991L6.70939 11.0366L6.5761 10.7579L6.46958 10.4648L6.39167 10.1587L6.34377 9.84133C6.33287 9.73258 6.32743 9.62336 6.32745 9.51406C6.32743 9.40478 6.33287 9.29558 6.34377 9.18685C6.35454 9.07934 6.37055 8.97342 6.39167 8.86945C6.41258 8.7662 6.4386 8.66405 6.46964 8.56339L6.57616 8.27033L6.70946 7.99165L6.8682 7.72908L7.0508 7.48419L7.25562 7.25844L7.48119 7.05343L7.72588 6.87067L7.98761 6.71182L8.26595 6.57828C8.36176 6.53797 8.45949 6.50242 8.55878 6.47175L8.86458 6.3937C8.96848 6.3726 9.07427 6.3565 9.18109 6.34571C9.28974 6.3348 9.39881 6.32928 9.50801 6.3293Z" fill="url(#paint0_radial_991_704)"/>
<path d="M14.5639 3.26742C14.5253 3.26743 14.4867 3.26938 14.4483 3.27327C14.4099 3.27716 14.3718 3.28298 14.334 3.29071C14.2962 3.29844 14.2588 3.30806 14.2219 3.31956C14.185 3.33105 14.1488 3.34441 14.1133 3.35956C14.0777 3.37473 14.043 3.39168 14.0091 3.41035C13.9753 3.42899 13.9423 3.44932 13.9105 3.47127C13.8787 3.49325 13.8479 3.51681 13.8184 3.54189C13.7889 3.56693 13.7607 3.59345 13.7338 3.62134C13.7069 3.64925 13.6815 3.67849 13.6575 3.70897C13.6335 3.73945 13.6111 3.77111 13.5902 3.80385C13.5694 3.83657 13.5502 3.87031 13.5327 3.90496C13.5152 3.93963 13.4994 3.97516 13.4854 4.01143C13.4714 4.04768 13.4593 4.08462 13.4489 4.1221C13.4386 4.15958 13.4302 4.19756 13.4236 4.23589C13.4171 4.27421 13.4124 4.31284 13.4097 4.35163C13.4077 4.37911 13.4068 4.40665 13.4068 4.43419C13.4068 4.47311 13.4087 4.512 13.4125 4.55072C13.4164 4.58943 13.4222 4.62791 13.4298 4.66604C13.4375 4.70416 13.447 4.74187 13.4584 4.77903C13.4699 4.8162 13.4831 4.85277 13.4981 4.88861C13.5132 4.92446 13.53 4.95952 13.5485 4.99368C13.567 5.02783 13.5871 5.06102 13.6089 5.09313C13.6307 5.12523 13.6541 5.1562 13.6789 5.18594C13.7038 5.21571 13.7301 5.2442 13.7577 5.27132C13.7854 5.29841 13.8144 5.3241 13.8446 5.34827C13.8749 5.37246 13.9063 5.39511 13.9387 5.41614C13.9712 5.43717 14.0047 5.45654 14.0391 5.47419C14.0735 5.49185 14.1087 5.50777 14.1447 5.52188C14.1806 5.53597 14.2172 5.54824 14.2544 5.55865C14.2916 5.56904 14.3292 5.57754 14.3673 5.58414C14.4053 5.59076 14.4436 5.59546 14.482 5.59822C14.5093 5.60017 14.5366 5.60115 14.5639 5.60115C14.6025 5.60116 14.6411 5.59923 14.6794 5.59536C14.7178 5.59147 14.756 5.58565 14.7938 5.57792C14.8316 5.57019 14.869 5.56057 14.9059 5.54908C14.9427 5.53758 14.979 5.52423 15.0145 5.50907C15.05 5.49392 15.0848 5.47699 15.1187 5.45834C15.1525 5.43968 15.1854 5.41933 15.2173 5.39736C15.2491 5.3754 15.2798 5.35186 15.3094 5.32681C15.3389 5.30174 15.3671 5.2752 15.394 5.24729C15.4208 5.21938 15.4463 5.19014 15.4703 5.15966C15.4943 5.12919 15.5167 5.09752 15.5375 5.06478C15.5584 5.03205 15.5776 4.99828 15.5951 4.96361C15.6126 4.92894 15.6284 4.89341 15.6424 4.85715C15.6563 4.82089 15.6685 4.78395 15.6788 4.74647C15.6891 4.70899 15.6976 4.67101 15.7041 4.63268C15.7107 4.59436 15.7153 4.55573 15.7181 4.51694C15.72 4.48946 15.721 4.46192 15.721 4.43438C15.721 4.39548 15.7191 4.35661 15.7152 4.31791C15.7114 4.2792 15.7056 4.24072 15.6979 4.20259C15.6903 4.16447 15.6807 4.12676 15.6693 4.0896C15.6579 4.05243 15.6447 4.01586 15.6296 3.98002C15.6146 3.94417 15.5978 3.90911 15.5793 3.87495C15.5608 3.84081 15.5406 3.80761 15.5189 3.7755C15.4971 3.74338 15.4737 3.71239 15.4488 3.68263C15.424 3.65286 15.3977 3.62437 15.37 3.59725C15.3424 3.57016 15.3133 3.54447 15.2831 3.5203C15.2529 3.49613 15.2215 3.4735 15.189 3.45249C15.1565 3.43146 15.123 3.41209 15.0886 3.39444C15.0543 3.37678 15.0191 3.36086 14.9831 3.34675C14.9472 3.33266 14.9105 3.32039 14.8734 3.30998C14.8362 3.29957 14.7985 3.29105 14.7605 3.28443C14.7225 3.27783 14.6842 3.27315 14.6457 3.27041C14.6185 3.26846 14.5912 3.26742 14.5639 3.26742Z" fill="url(#paint1_radial_991_704)"/>
<path d="M8.5866 0.000177335C8.05815 -0.000676373 7.58655 0.00151858 7.16292 0.00749453L6.02713 0.0379841C5.69066 0.0526191 5.39338 0.0717042 5.12654 0.0964008C4.99312 0.108719 4.86725 0.1225 4.74795 0.137684C4.63442 0.152019 4.5212 0.168711 4.40837 0.187749C4.30094 0.206042 4.19899 0.225798 4.10123 0.247263C4.00348 0.268728 3.91011 0.291901 3.82003 0.31678C3.73196 0.341109 3.64458 0.367869 3.55799 0.397029C3.47314 0.42569 3.39037 0.456057 3.30862 0.488498C3.14513 0.55338 2.98566 0.626188 2.82144 0.707778C2.69508 0.770586 2.57834 0.834188 2.46744 0.901509C2.35654 0.96883 2.25148 1.03993 2.14861 1.11738C2.04268 1.19752 1.94057 1.28262 1.84263 1.37239C1.74025 1.46581 1.63568 1.56856 1.52704 1.68338C1.39051 1.82687 1.27188 1.96066 1.16658 2.09194C1.11393 2.15756 1.06463 2.22244 1.01819 2.28769C0.972259 2.35199 0.928352 2.41772 0.886531 2.48477C0.845141 2.55124 0.805943 2.61893 0.768449 2.68856C0.73037 2.7594 0.694382 2.83135 0.660531 2.90431C0.591264 3.05334 0.526623 3.21384 0.462104 3.393C0.414239 3.52544 0.371378 3.65965 0.333613 3.79534C0.295084 3.934 0.260816 4.07907 0.230261 4.23597C0.199705 4.39287 0.173045 4.5616 0.149612 4.7482C0.124359 4.95273 0.104186 5.15787 0.0891095 5.36341C0.0720667 5.5894 0.0579455 5.83808 0.0463808 6.11486L0.0189906 7.03516L0.00426069 8.15699L0 9.51299L0.0124778 11.4849L0.0514328 12.9789L0.0814403 13.5624L0.118935 14.046C0.130954 14.1763 0.145992 14.3064 0.164037 14.436C0.180471 14.5511 0.198123 14.6519 0.217113 14.7391C0.255647 14.9164 0.301211 15.092 0.353699 15.2657C0.403956 15.432 0.461429 15.5959 0.525954 15.7572C0.589377 15.9151 0.658766 16.0675 0.734241 16.214C0.809717 16.3606 0.891279 16.5015 0.978927 16.6368C1.06658 16.7721 1.16031 16.9019 1.26038 17.0261C1.36033 17.1503 1.46665 17.2693 1.5789 17.3825C1.69132 17.4959 1.80989 17.6038 1.93485 17.7064C2.06129 17.8101 2.19271 17.9076 2.32866 17.9985C2.45484 18.083 2.57967 18.1604 2.70543 18.2314C2.83118 18.3025 2.95803 18.3669 3.0884 18.4255C3.21878 18.4841 3.35244 18.5369 3.49207 18.5843C3.6317 18.6317 3.77718 18.6739 3.93093 18.7114C4.08468 18.7488 4.24744 18.7817 4.41969 18.8104C4.59194 18.839 4.77607 18.8636 4.97279 18.8847C5.16951 18.9059 5.37938 18.9234 5.6049 18.938C5.83041 18.9527 6.07144 18.9644 6.33044 18.9738C6.73052 18.9883 7.33614 18.9968 8.03453 19L10.2954 18.9954L12.4364 18.9654L13.2504 18.9424L13.7808 18.9151C13.8946 18.9058 14.006 18.8949 14.1135 18.882C14.221 18.8691 14.327 18.8544 14.4302 18.8377C14.5334 18.821 14.6344 18.8024 14.7335 18.7816C14.8315 18.7612 14.929 18.7384 15.0259 18.7132C15.1219 18.6888 15.2164 18.661 15.3101 18.6316C15.4037 18.6021 15.4963 18.5703 15.5884 18.5361C15.681 18.5018 15.7728 18.4651 15.8636 18.4263C15.9551 18.3873 16.0465 18.3456 16.1382 18.3013C16.2789 18.2334 16.3923 18.1767 16.4918 18.1214C16.5854 18.07 16.6756 18.0124 16.7617 17.9492C16.8466 17.8865 16.9311 17.8152 17.0285 17.7253C17.1259 17.6354 17.2363 17.5271 17.3729 17.3901C17.493 17.2699 17.5943 17.1654 17.6816 17.0703C17.769 16.9752 17.8426 16.8897 17.9071 16.8072C17.9686 16.729 18.0259 16.6476 18.0787 16.5632C18.1303 16.4809 18.1778 16.3954 18.2261 16.3006C18.2989 16.1579 18.3637 16.0257 18.4217 15.8982C18.478 15.7754 18.5295 15.6503 18.5759 15.5233C18.6217 15.3974 18.6613 15.2693 18.6947 15.1395C18.729 15.0059 18.7586 14.8649 18.7842 14.7103C18.8097 14.5557 18.8313 14.3874 18.8501 14.1994C18.8688 14.0115 18.8848 13.8038 18.8988 13.5704L18.9359 12.787L18.9678 11.8128L18.9906 10.7273L18.9993 9.59238L18.979 7.36329L18.9518 6.36487L18.9147 5.50763L18.8684 4.8393C18.8516 4.65331 18.8335 4.50684 18.8142 4.40781C18.793 4.29839 18.7692 4.18947 18.7429 4.08114C18.7173 3.97574 18.6892 3.87096 18.6586 3.76692C18.6287 3.66555 18.5963 3.56497 18.5613 3.46526C18.5268 3.36677 18.4901 3.27037 18.4518 3.17603C18.4134 3.0817 18.3719 2.98956 18.3287 2.89937C18.2855 2.80918 18.2402 2.72119 18.1927 2.63521C18.1451 2.54923 18.0956 2.46538 18.0438 2.38361C17.992 2.30183 17.9381 2.22213 17.8819 2.14457C17.826 2.06725 17.7678 1.9917 17.7072 1.91803C17.6469 1.84477 17.5844 1.77342 17.5196 1.70412C17.4549 1.6349 17.3881 1.56774 17.3192 1.50276C17.2502 1.43776 17.1792 1.37483 17.1059 1.31397C17.0323 1.25291 16.9569 1.19416 16.8797 1.1378C16.8017 1.08087 16.7219 1.02633 16.6406 0.974258C16.5582 0.921447 16.4742 0.871096 16.3887 0.823273C16.3018 0.774648 16.2135 0.728529 16.124 0.684972C15.9753 0.61259 15.8379 0.54838 15.703 0.491425C15.5703 0.434901 15.4351 0.384699 15.2977 0.340989C15.1595 0.297389 15.0157 0.260009 14.8574 0.227751C14.6992 0.195493 14.5266 0.168601 14.3313 0.145734C14.136 0.122867 13.9179 0.104391 13.6685 0.089024C13.419 0.0736573 13.1385 0.0615824 12.8182 0.0518258L11.7295 0.0274345L10.3516 0.0111531L8.5866 0.000177335ZM9.50296 1.67722L12.0474 1.69174L13.0073 1.71028C13.2716 1.71772 13.4733 1.72644 13.5916 1.7365C13.7456 1.74949 13.8923 1.76577 14.0326 1.78528C14.1672 1.80391 14.3012 1.82707 14.4343 1.85474C14.5621 1.88157 14.684 1.91206 14.8007 1.94645C14.9174 1.98084 15.0288 2.01938 15.1358 2.062C15.2427 2.10463 15.345 2.15152 15.4434 2.20287C15.541 2.25382 15.6359 2.3099 15.7277 2.37086C15.819 2.43154 15.907 2.49691 15.9924 2.56734C16.0779 2.63777 16.1607 2.71326 16.2416 2.794C16.327 2.87918 16.4058 2.96596 16.4784 3.05548C16.5507 3.14444 16.6177 3.23768 16.6788 3.3347C16.7407 3.4331 16.7964 3.53523 16.8457 3.64051C16.8961 3.74783 16.9414 3.86125 16.9821 3.98181C17.0227 4.10237 17.059 4.23048 17.091 4.36738C17.1246 4.51252 17.1528 4.65887 17.1754 4.80613C17.1997 4.96223 17.2206 5.12871 17.2382 5.30695C17.2559 5.48519 17.2705 5.67526 17.2825 5.87863C17.2921 6.04175 17.3005 6.257 17.3077 6.51123L17.3255 7.37804L17.3391 9.50134L17.3236 11.6226L17.305 12.4869L17.2794 13.1156C17.2616 13.4099 17.2428 13.6574 17.2204 13.8727C17.2092 13.9804 17.197 14.0801 17.1835 14.1736C17.1708 14.2619 17.1558 14.3498 17.1385 14.4374C17.1227 14.5172 17.1043 14.5965 17.0834 14.6752C17.0634 14.7502 17.0409 14.8246 17.0159 14.8982C16.9907 14.9721 16.9634 15.0452 16.9338 15.1175C16.9026 15.1938 16.8696 15.2693 16.8349 15.3441C16.804 15.4109 16.7716 15.4758 16.7373 15.5391C16.7033 15.6017 16.6673 15.6631 16.6292 15.7232C16.5914 15.7828 16.5519 15.8407 16.5105 15.8967C16.4693 15.9526 16.4262 16.0069 16.3811 16.0596C16.3361 16.1122 16.2893 16.163 16.2407 16.2121C16.192 16.2612 16.1414 16.3086 16.0891 16.3543C16.0367 16.4 15.9825 16.4439 15.9263 16.4863C15.8701 16.5286 15.812 16.5692 15.7519 16.6081C15.6918 16.647 15.6299 16.6843 15.5659 16.7199C15.5019 16.7555 15.4359 16.7896 15.3681 16.8219C15.299 16.8548 15.229 16.8856 15.1581 16.9143C15.0849 16.9439 15.0108 16.9714 14.936 16.9969C14.7838 17.0488 14.6233 17.0945 14.4543 17.1338C14.2782 17.1745 14.1005 17.2079 13.9216 17.2337C13.8528 17.2437 13.6948 17.2532 13.4683 17.262L12.6055 17.286L10.1592 17.3178L7.59879 17.3219L6.59326 17.3111L5.94034 17.2908L5.45888 17.2568C5.30939 17.2442 5.17037 17.2302 5.04011 17.2143C4.90985 17.1984 4.78855 17.1806 4.67442 17.1606C4.56627 17.1419 4.45878 17.1195 4.35213 17.0935C4.25488 17.0698 4.15864 17.0422 4.06362 17.0107C3.97201 16.9802 3.88442 16.9467 3.79921 16.9098C3.714 16.8729 3.63122 16.8325 3.54923 16.7883C3.46724 16.7442 3.3861 16.6963 3.30406 16.644C3.24215 16.6046 3.18232 16.5647 3.12474 16.5225C3.06716 16.4802 3.01153 16.4381 2.95796 16.3939C2.9044 16.3498 2.85297 16.3043 2.80336 16.2575C2.75408 16.2109 2.7065 16.1625 2.66069 16.1125C2.61504 16.0626 2.5714 16.0112 2.52952 15.9581C2.48748 15.9047 2.44742 15.8498 2.40943 15.7934C2.37087 15.7362 2.33439 15.6776 2.30005 15.6178C2.26536 15.5574 2.23237 15.495 2.20102 15.4306C2.16915 15.365 2.13941 15.2983 2.11185 15.2308C2.08385 15.162 2.05731 15.091 2.03236 15.0177C1.98245 14.871 1.93862 14.7149 1.90052 14.5485C1.86242 14.382 1.82991 14.2051 1.8024 14.0167C1.77489 13.8283 1.75273 13.6285 1.73508 13.4162C1.72206 13.2598 1.71171 13.0162 1.7038 12.7088L1.68724 11.6158L1.69333 8.82935L1.74123 6.16675L1.77775 5.22865L1.79844 4.91857C1.80563 4.83576 1.81305 4.77442 1.82066 4.73759C1.84574 4.61642 1.871 4.50367 1.89711 4.39812C1.9215 4.29854 1.94864 4.19965 1.97849 4.10157C2.00685 4.00901 2.03674 3.92229 2.06869 3.84016C2.09951 3.76059 2.13385 3.68244 2.17162 3.60593C2.20851 3.53154 2.24813 3.46032 2.29116 3.39098C2.3342 3.32165 2.38064 3.25439 2.43128 3.1875C2.48192 3.1206 2.53646 3.05456 2.5958 2.98761C2.65515 2.92065 2.71924 2.85303 2.78875 2.78333C2.86976 2.7017 2.95412 2.62348 3.0416 2.54886C3.1242 2.47846 3.21033 2.41233 3.29967 2.35074C3.3875 2.28976 3.47759 2.23549 3.57138 2.18561C3.66518 2.13573 3.76269 2.09066 3.86525 2.05011C3.96781 2.00956 4.07555 1.97328 4.18967 1.94035C4.30957 1.90666 4.4308 1.87791 4.55305 1.85419C4.6816 1.82894 4.81813 1.80693 4.9639 1.78772C5.10968 1.76851 5.26477 1.75192 5.43057 1.73753C5.54622 1.72753 5.7455 1.71863 6.0079 1.71113L6.96291 1.69223L9.50296 1.67722Z" fill="url(#paint2_radial_991_704)"/>
<defs>
<radialGradient id="paint0_radial_991_704" cx="0" cy="0" r="1" gradientUnits="userSpaceOnUse" gradientTransform="translate(-3.1718 30.7372) rotate(-9.54049) scale(78.51 47.7007)">
<stop stop-color="#FED576"/>
<stop offset="0.263" stop-color="#F47133"/>
<stop offset="0.609" stop-color="#BC3081"/>
<stop offset="1" stop-color="#4C63D2"/>
</radialGradient>
<radialGradient id="paint1_radial_991_704" cx="0" cy="0" r="1" gradientUnits="userSpaceOnUse" gradientTransform="translate(-85.2164 139.362) rotate(-9.47021) scale(329.604 198.838)">
<stop stop-color="#FED576"/>
<stop offset="0.263" stop-color="#F47133"/>
<stop offset="0.609" stop-color="#BC3081"/>
<stop offset="1" stop-color="#4C63D2"/>
</radialGradient>
<radialGradient id="paint2_radial_991_704" cx="0" cy="0" r="1" gradientUnits="userSpaceOnUse" gradientTransform="translate(3.02692 20.385) rotate(-9.54821) scale(40.1568 24.4173)">
<stop stop-color="#FED576"/>
<stop offset="0.263" stop-color="#F47133"/>
<stop offset="0.609" stop-color="#BC3081"/>
<stop offset="1" stop-color="#4C63D2"/>
</radialGradient>
</defs>
</svg>
