<svg width="25" height="26" viewBox="0 0 25 26" fill="none" xmlns="http://www.w3.org/2000/svg">
<path d="M24.2866 18.4398L18.8179 16.0833C18.5843 15.9832 18.3246 15.9621 18.078 16.0232C17.8315 16.0843 17.6113 16.2243 17.4507 16.422L15.0288 19.3972C11.2279 17.5953 8.16904 14.5197 6.37695 10.6981L9.33594 8.26295C9.53305 8.10176 9.67256 7.88039 9.73335 7.63235C9.79414 7.38431 9.7729 7.12311 9.67285 6.88829L7.3291 1.38966C7.21929 1.13653 7.02508 0.929856 6.77996 0.805279C6.53483 0.680702 6.25416 0.646029 5.98633 0.707237L0.908203 1.88552C0.649985 1.94547 0.419602 2.09166 0.254656 2.30021C0.0897096 2.50877 -5.94829e-05 2.76739 2.95713e-08 3.03385C2.95713e-08 15.6267 10.1514 25.8139 22.6562 25.8139C22.9213 25.8141 23.1787 25.7239 23.3862 25.558C23.5937 25.3921 23.7392 25.1604 23.7988 24.9007L24.9707 19.7949C25.0312 19.5243 24.996 19.2409 24.8711 18.9936C24.7463 18.7463 24.5396 18.5505 24.2866 18.4398Z" fill="#6EBF63"/>
</svg>
