<svg width="117" height="116" viewBox="0 0 117 116" fill="none" xmlns="http://www.w3.org/2000/svg">
<path fill-rule="evenodd" clip-rule="evenodd" d="M58.5 112.09C88.6959 112.09 113.1 87.832 113.1 58C113.1 28.1681 88.6959 3.91011 58.5 3.91011C28.3041 3.91011 3.9 28.1681 3.9 58C3.9 87.832 28.3041 112.09 58.5 112.09ZM58.5 116C90.8087 116 117 90.0325 117 58C117 25.9675 90.8087 0 58.5 0C26.1913 0 0 25.9675 0 58C0 90.0325 26.1913 116 58.5 116Z" fill="white"/>
<path d="M98.15 20.8539H18.85L30.55 32.9101L51.35 33.1526V60.6067L30.225 42.0337V86.0225L41.925 98.0787L41.6 58L51.35 62.236V93.7496L57.85 104.921L64.35 93.7496V62.5618L74.1 58.3258L73.775 98.4045L85.475 86.3483V42.3596L64.35 60.9326V33.3042L86.45 33.5618L98.15 20.8539Z" fill="white"/>
</svg>
