<svg width="34" height="34" viewBox="0 0 34 34" fill="none" xmlns="http://www.w3.org/2000/svg">
<path fill-rule="evenodd" clip-rule="evenodd" d="M17 32.8539C25.7749 32.8539 32.8667 25.7438 32.8667 17C32.8667 8.25615 25.7749 1.14607 17 1.14607C8.22511 1.14607 1.13333 8.25615 1.13333 17C1.13333 25.7438 8.22511 32.8539 17 32.8539ZM17 34C26.3888 34 34 26.3888 34 17C34 7.61116 26.3888 0 17 0C7.61116 0 0 7.61116 0 17C0 26.3888 7.61116 34 17 34Z" fill="#4C7584"/>
<path d="M28.5222 6.11236H5.47778L8.87778 9.64607L14.9222 9.71714V17.764L8.78333 12.3202V25.2135L12.1833 28.7472L12.0889 17L14.9222 18.2416V27.4783L16.8111 30.7528L18.7 27.4783V18.3371L21.5333 17.0955L21.4389 28.8427L24.8389 25.309V12.4157L18.7 17.8596V9.76156L25.1222 9.83708L28.5222 6.11236Z" fill="#4C7584"/>
</svg>
